<svg xmlns="http://www.w3.org/2000/svg" viewBox="0 0 1200 630" width="1200" height="630">
  <defs>
    <linearGradient id="bg" x1="0%" y1="0%" x2="100%" y2="100%">
      <stop offset="0%" stop-color="#1B4332"/>
      <stop offset="60%" stop-color="#2D6A4F"/>
      <stop offset="100%" stop-color="#1B4332"/>
    </linearGradient>
    <linearGradient id="glow" x1="0%" y1="0%" x2="100%" y2="100%">
      <stop offset="0%" stop-color="#74C69D" stop-opacity="0.15"/>
      <stop offset="100%" stop-color="#40916C" stop-opacity="0"/>
    </linearGradient>
    <clipPath id="roundedRect">
      <rect width="1200" height="630" rx="0"/>
    </clipPath>
  </defs>

  <!-- Background -->
  <rect width="1200" height="630" fill="url(#bg)"/>

  <!-- Glow overlay top-left -->
  <ellipse cx="200" cy="150" rx="400" ry="300" fill="url(#glow)"/>

  <!-- Decorative large leaf top-right -->
  <g opacity="0.08">
    <path d="M1150 -60 C1150 -60 750 80 680 450 C680 450 900 350 1020 200 C1140 50 1150 -60 1150 -60Z" fill="#74C69D"/>
    <path d="M1150 -60 C1150 -60 900 100 860 380" stroke="#D8F3DC" stroke-width="2" fill="none"/>
  </g>

  <!-- Decorative leaf bottom-left -->
  <g opacity="0.06">
    <path d="M50 680 C50 680 400 620 460 240 C460 240 280 320 180 430 C80 540 50 680 50 680Z" fill="#40916C"/>
  </g>

  <!-- Decorative dots pattern -->
  <g opacity="0.06" fill="#74C69D">
    <circle cx="60" cy="60" r="4"/><circle cx="100" cy="60" r="4"/><circle cx="140" cy="60" r="4"/><circle cx="180" cy="60" r="4"/>
    <circle cx="60" cy="100" r="4"/><circle cx="100" cy="100" r="4"/><circle cx="140" cy="100" r="4"/>
    <circle cx="60" cy="140" r="4"/><circle cx="100" cy="140" r="4"/>
  </g>

  <!-- Gold accent line top -->
  <rect x="80" y="48" width="120" height="3" rx="2" fill="#C8973C"/>

  <!-- ── BOTANICAL ILLUSTRATION (right side) ── -->
  <g transform="translate(820, 80)">
    <!-- Outer glow ring -->
    <circle cx="160" cy="230" r="210" fill="#40916C" opacity="0.08"/>
    <circle cx="160" cy="230" r="180" fill="#2D6A4F" opacity="0.12"/>

    <!-- Circle frame -->
    <circle cx="160" cy="230" r="160" fill="none" stroke="#C8973C" stroke-width="3" stroke-dasharray="12 6" opacity="0.6"/>
    <circle cx="160" cy="230" r="152" fill="#1B4332" opacity="0.5"/>

    <!-- Stem -->
    <path d="M160 420 L160 160" stroke="#74C69D" stroke-width="5" stroke-linecap="round"/>

    <!-- Large leaf left -->
    <path d="M160 300 C160 300 90 270 78 220 C78 220 128 228 160 300Z" fill="#40916C"/>
    <path d="M160 300 C136 276 110 256 78 220" stroke="#2D6A4F" stroke-width="2" fill="none"/>

    <!-- Large leaf right -->
    <path d="M160 300 C160 300 230 270 242 220 C242 220 192 228 160 300Z" fill="#40916C"/>
    <path d="M160 300 C184 276 210 256 242 220" stroke="#2D6A4F" stroke-width="2" fill="none"/>

    <!-- Mid leaf left -->
    <path d="M160 255 C160 255 105 235 98 198 C98 198 138 208 160 255Z" fill="#52B788"/>
    <!-- Mid leaf right -->
    <path d="M160 255 C160 255 215 235 222 198 C222 198 182 208 160 255Z" fill="#52B788"/>

    <!-- Upper leaf left -->
    <path d="M160 210 C160 210 118 196 114 170 C114 170 145 178 160 210Z" fill="#74C69D"/>
    <!-- Upper leaf right -->
    <path d="M160 210 C160 210 202 196 206 170 C206 170 175 178 160 210Z" fill="#74C69D"/>

    <!-- Flower center -->
    <circle cx="160" cy="148" r="30" fill="#C8973C" opacity="0.95"/>
    <circle cx="160" cy="148" r="18" fill="#E8C87A"/>
    <circle cx="160" cy="148" r="9" fill="#1B4332"/>

    <!-- Petals -->
    <ellipse cx="160" cy="112" rx="8" ry="16" fill="#E8C87A" opacity="0.75"/>
    <ellipse cx="160" cy="184" rx="8" ry="16" fill="#E8C87A" opacity="0.75"/>
    <ellipse cx="124" cy="148" rx="16" ry="8" fill="#E8C87A" opacity="0.75"/>
    <ellipse cx="196" cy="148" rx="16" ry="8" fill="#E8C87A" opacity="0.75"/>
    <ellipse cx="135" cy="123" rx="8" ry="16" fill="#E8C87A" opacity="0.6" transform="rotate(-45 135 123)"/>
    <ellipse cx="185" cy="123" rx="8" ry="16" fill="#E8C87A" opacity="0.6" transform="rotate(45 185 123)"/>
    <ellipse cx="135" cy="173" rx="8" ry="16" fill="#E8C87A" opacity="0.6" transform="rotate(45 135 173)"/>
    <ellipse cx="185" cy="173" rx="8" ry="16" fill="#E8C87A" opacity="0.6" transform="rotate(-45 185 173)"/>

    <!-- Small ground leaves -->
    <path d="M160 380 C160 380 128 370 122 348 C122 348 146 355 160 380Z" fill="#74C69D" opacity="0.7"/>
    <path d="M160 380 C160 380 192 370 198 348 C198 348 174 355 160 380Z" fill="#74C69D" opacity="0.7"/>
  </g>

  <!-- ── LEFT CONTENT ── -->

  <!-- Tag pill -->
  <rect x="80" y="80" width="360" height="36" rx="18" fill="#40916C" opacity="0.3"/>
  <rect x="80" y="80" width="360" height="36" rx="18" fill="none" stroke="#74C69D" stroke-width="1.5" opacity="0.6"/>
  <text x="260" y="104" font-family="'Arial', sans-serif" font-size="13" fill="#74C69D" font-weight="600" letter-spacing="1.5" text-anchor="middle">HORTICULTURE · LANDSCAPE DESIGN</text>

  <!-- Name -->
  <text x="80" y="185" font-family="'Georgia', 'Times New Roman', serif" font-size="68" font-weight="700" fill="#FFFFFF" letter-spacing="-1">Ashima</text>
  <text x="80" y="258" font-family="'Georgia', 'Times New Roman', serif" font-size="68" font-weight="400" fill="#74C69D" font-style="italic" letter-spacing="-1">Abdul Kareem</text>

  <!-- Gold divider -->
  <rect x="80" y="278" width="500" height="2" rx="1" fill="#C8973C" opacity="0.7"/>

  <!-- Title -->
  <text x="80" y="320" font-family="'Arial', sans-serif" font-size="20" fill="#D8F3DC" font-weight="400" letter-spacing="0.5">M.Sc Horticulture · AutoCAD-Certified Designer · Published Researcher</text>

  <!-- Credential pills row -->
  <g transform="translate(80, 350)">
    <!-- Pill 1 -->
    <rect width="148" height="34" rx="17" fill="#40916C" opacity="0.25"/>
    <rect width="148" height="34" rx="17" fill="none" stroke="#52B788" stroke-width="1" opacity="0.5"/>
    <text x="74" y="22" font-family="'Arial', sans-serif" font-size="13" fill="#74C69D" font-weight="600" text-anchor="middle">🎓 M.Sc Horticulture</text>

    <!-- Pill 2 -->
    <rect x="160" width="130" height="34" rx="17" fill="#40916C" opacity="0.25"/>
    <rect x="160" width="130" height="34" rx="17" fill="none" stroke="#52B788" stroke-width="1" opacity="0.5"/>
    <text x="225" y="22" font-family="'Arial', sans-serif" font-size="13" fill="#74C69D" font-weight="600" text-anchor="middle">📐 AutoCAD CAD</text>

    <!-- Pill 3 -->
    <rect x="302" width="136" height="34" rx="17" fill="#40916C" opacity="0.25"/>
    <rect x="302" width="136" height="34" rx="17" fill="none" stroke="#52B788" stroke-width="1" opacity="0.5"/>
    <text x="370" y="22" font-family="'Arial', sans-serif" font-size="13" fill="#74C69D" font-weight="600" text-anchor="middle">📄 IJECC Published</text>
  </g>

  <!-- Key stats row -->
  <g transform="translate(80, 420)">
    <!-- Stat 1 -->
    <rect width="148" height="82" rx="12" fill="#FFFFFF" opacity="0.05"/>
    <rect width="148" height="82" rx="12" fill="none" stroke="#FFFFFF" stroke-width="1" opacity="0.1"/>
    <text x="74" y="38" font-family="'Georgia', serif" font-size="26" font-weight="700" fill="#E8C87A" text-anchor="middle">M.Sc</text>
    <text x="74" y="62" font-family="'Arial', sans-serif" font-size="11" fill="#74C69D" text-anchor="middle" letter-spacing="1" font-weight="600">HORTICULTURE</text>

    <!-- Stat 2 -->
    <rect x="160" width="148" height="82" rx="12" fill="#FFFFFF" opacity="0.05"/>
    <rect x="160" width="148" height="82" rx="12" fill="none" stroke="#FFFFFF" stroke-width="1" opacity="0.1"/>
    <text x="234" y="38" font-family="'Georgia', serif" font-size="26" font-weight="700" fill="#E8C87A" text-anchor="middle">120h</text>
    <text x="234" y="62" font-family="'Arial', sans-serif" font-size="11" fill="#74C69D" text-anchor="middle" letter-spacing="1" font-weight="600">CAD CERTIFIED</text>

    <!-- Stat 3 -->
    <rect x="320" width="148" height="82" rx="12" fill="#FFFFFF" opacity="0.05"/>
    <rect x="320" width="148" height="82" rx="12" fill="none" stroke="#FFFFFF" stroke-width="1" opacity="0.1"/>
    <text x="394" y="38" font-family="'Georgia', serif" font-size="26" font-weight="700" fill="#E8C87A" text-anchor="middle">IJECC</text>
    <text x="394" y="62" font-family="'Arial', sans-serif" font-size="11" fill="#74C69D" text-anchor="middle" letter-spacing="1" font-weight="600">PUBLISHED</text>
  </g>

  <!-- Location & contact bar at bottom -->
  <rect x="0" y="565" width="1200" height="65" fill="#FFFFFF" opacity="0.04"/>
  <rect x="0" y="565" width="1200" height="1" fill="#C8973C" opacity="0.4"/>

  <!-- Location -->
  <text x="80" y="606" font-family="'Arial', sans-serif" font-size="16" fill="#74C69D" font-weight="500">📍 Abu Dhabi, UAE</text>
  <text x="280" y="606" font-family="'Arial', sans-serif" font-size="16" fill="rgba(255,255,255,0.3)">|</text>
  <text x="300" y="606" font-family="'Arial', sans-serif" font-size="16" fill="#74C69D" font-weight="500">✉ ashimaak25@gmail.com</text>
  <text x="560" y="606" font-family="'Arial', sans-serif" font-size="16" fill="rgba(255,255,255,0.3)">|</text>
  <text x="580" y="606" font-family="'Arial', sans-serif" font-size="16" fill="#74C69D" font-weight="500">+971 56 461 8122</text>

  <!-- URL right-aligned -->
  <text x="1120" y="606" font-family="'Arial', sans-serif" font-size="14" fill="#C8973C" font-weight="500" text-anchor="end" opacity="0.8">ashimaak.github.io/ashimaak</text>
</svg>
